<svg xmlns="http://www.w3.org/2000/svg" xmlns:xlink="http://www.w3.org/1999/xlink" version="1.1" x="0px" y="0px" viewBox="0 0 30 37.5" xml:space="preserve"><g transform="translate(-330 -260)"><g xmlns="http://www.w3.org/2000/svg" xmlns:xlink="http://www.w3.org/1999/xlink"><g><path d="M349.758,278.967c-0.895-0.564-2.586-1.89-1.258-3.217c0.708-0.707,1.12-1.99,1.372-3.379     c0.408-0.01,0.949-0.892,1.243-2.072c0.313-1.249,0.229-2.347-0.188-2.451c-0.206-0.051-0.456,0.152-0.692,0.523     c0.013-0.544,0.016-1.035,0.016-1.371c0-1.75-1.75-5.25-5.25-5.25s-5.25,3.5-5.25,5.25c0,0.336,0.003,0.827,0.016,1.371     c-0.237-0.371-0.486-0.574-0.693-0.523c-0.417,0.104-0.501,1.202-0.189,2.451c0.294,1.181,0.836,2.063,1.243,2.072     c0.252,1.389,0.665,2.672,1.373,3.379c1.75,1.75-1.75,3.5-1.75,3.5s-5.469,2.188-7,3.5C331.219,284.063,331,288,331,288h14h2.587     c-0.376-0.927-0.587-1.939-0.587-3C347,282.589,348.071,280.433,349.758,278.967z"/></g><polygon points="359.243,282.171 357.829,280.757 355.001,283.586 352.172,280.757 350.757,282.171 353.586,285 350.758,287.828     352.173,289.242 355.001,286.414 357.828,289.242 359.243,287.828 356.414,285   "/></g></g><text x="0" y="45" fill="#000000" font-size="5px" font-weight="bold" font-family="'Helvetica Neue', Helvetica, Arial-Unicode, Arial, Sans-serif">Created by Hea Poh Lin</text><text x="0" y="50" fill="#000000" font-size="5px" font-weight="bold" font-family="'Helvetica Neue', Helvetica, Arial-Unicode, Arial, Sans-serif">from the Noun Project</text></svg>