<svg xmlns="http://www.w3.org/2000/svg" xmlns:xlink="http://www.w3.org/1999/xlink" version="1.1" x="0px" y="0px" viewBox="0 0 100 125" enable-background="new 0 0 100 100" xml:space="preserve"><g><path fill="#000000" d="M30.397,12.368c0-4.096-3.296-7.43-7.355-7.43c-4.06,0-7.351,3.333-7.351,7.43   c0,4.101,3.291,7.43,7.351,7.43C27.101,19.798,30.397,16.47,30.397,12.368 M71.266,12.368c0-4.096-3.297-7.43-7.355-7.43   c-4.061,0-7.352,3.333-7.352,7.43c0,4.101,3.291,7.43,7.352,7.43C67.969,19.798,71.266,16.47,71.266,12.368 M88.999,71.736   c-1.781-1.025-2.597-1.643-2.597-3.072v-0.396c0-1.794,0.918-2.979,2.597-3.368V71.736z M91.184,78.859l0.14,0.08   c1.584,0.916,2.575,1.474,2.575,3.109v0.598c0,1.83-0.965,3.023-2.715,3.385V78.859z M99.5,69.141v-0.873   c0-4.812-3.463-7.395-8.316-7.707v-5.018c0-2.425-1.658-3.477-3.104-3.746c0.561-0.792,0.84-1.876,0.463-3.24l-6.355-19.666   c-0.141-0.433-0.271-0.925-0.508-1.262c-2.849-5.785-8.332-5.492-8.332-5.492h-9.604h-9.267c0,0-6.851-0.252-9.2,8.008   l-2.874,10.107L39.53,30.145c-2.354-8.26-9.199-8.008-9.199-8.008h-7.307H15.73c0,0-6.854-0.252-9.2,8.008L0.651,49.171   c-0.557,1.937,0.489,3.408,2.166,3.897c1.672,0.485,3.382-0.368,3.815-1.912l5.721-18.503l2.792-0.005l-8.354,35.46h7.384v0.01   v23.68c0,2.042,1.628,3.702,3.656,3.702c2.023,0,3.675-1.66,3.675-3.702v-23.69h3.095v23.688c0,2.042,1.632,3.702,3.655,3.702   c2.028,0,3.677-1.66,3.677-3.702V68.118v-0.01h7.259l-8.272-35.46l2.78,0.005l5.655,18.294c0.091,0.339,0.245,0.646,0.44,0.922   c0.558,0.84,1.524,1.316,2.604,1.281c1.077,0.035,2.037-0.431,2.59-1.266c0.23-0.302,0.388-0.646,0.481-1.029l5.631-18.203   l2.568-0.005v58.43c0,2.408,1.95,4.36,4.333,4.36c2.384,0,4.315-1.952,4.315-4.36V58.623h3.189v32.454   c0,2.408,1.932,4.36,4.311,4.36c2.388,0,4.343-1.952,4.343-4.36v-58.43l1.188,0.002v0.001h0.853l0.75,0.002l0.003-0.002h0.059   l5.717,17.922c0.17,0.552,0.406,1.004,0.687,1.368c-1.844,0.579-2.615,2.312-2.615,3.603v0.735c0,0.61,0.489,1.104,1.093,1.104   s1.094-0.493,1.094-1.104v-0.735c0.009-0.49,0.188-1.655,1.639-1.655h2.732c0.486,0.009,1.64,0.189,1.64,1.655v5.122   c-4.959,0.421-8.202,3.208-8.202,7.838c0,2.272,0.631,4.742,3.391,6.338l4.812,2.764v8.396c-1.623-0.419-2.688-1.685-2.688-3.354   v-1.635c0-0.599-0.588-1.113-1.312-1.113h-2.892c-0.723,0-1.311,0.515-1.311,1.113v1.635c0,4.734,3.446,7.344,8.202,7.699v3.974   c0,0.609,0.489,1.103,1.092,1.103c0.604,0,1.093-0.493,1.093-1.103v-3.972c4.959-0.345,8.316-3.02,8.316-7.701   c0-3.707-0.584-5.261-4.021-7.207l-4.295-2.448v-8.109c1.809,0.369,2.808,1.659,2.808,3.386v0.873c0,0.598,0.588,1.12,1.311,1.12   h2.892C98.916,70.261,99.5,69.738,99.5,69.141"/></g><text x="0" y="115" fill="#000000" font-size="5px" font-weight="bold" font-family="'Helvetica Neue', Helvetica, Arial-Unicode, Arial, Sans-serif">Created by Rediffusion</text><text x="0" y="120" fill="#000000" font-size="5px" font-weight="bold" font-family="'Helvetica Neue', Helvetica, Arial-Unicode, Arial, Sans-serif">from the Noun Project</text></svg>