<svg xmlns:dc="http://purl.org/dc/elements/1.1/" xmlns:cc="http://creativecommons.org/ns#" xmlns:rdf="http://www.w3.org/1999/02/22-rdf-syntax-ns#" xmlns:svg="http://www.w3.org/2000/svg" xmlns="http://www.w3.org/2000/svg" xmlns:sodipodi="http://sodipodi.sourceforge.net/DTD/sodipodi-0.dtd" xmlns:inkscape="http://www.inkscape.org/namespaces/inkscape" version="1.1" x="0px" y="0px" viewBox="0 0 100 125"><g transform="translate(0,-952.36218)"><path d="m 19.594409,1032.7678 c -7.02681,-7.0268 -7.02681,-18.4291 0,-25.4559 l 35.35534,-35.35532 c 7.02681,-7.02681 18.42903,-7.0268 25.45584,10e-6 7.026813,7.02681 7.026813,18.42904 0,25.45585 l -35.35534,35.35536 c -7.02681,7.0268 -18.42903,7.0268 -25.45584,0 z m 21.920309,-41.71933 19.79899,19.79903 16.26346,-16.2635 c 5.508771,-5.50877 5.50876,-14.2902 -9e-6,-19.79898 -5.508771,-5.50879 -14.29021,-5.50878 -19.798991,0 z m 25.98618,4.81717 c -0.61856,-0.77127 -0.5372,-2.01195 0.17678,-2.69585 l 2.82842,-2.82843 c 1.5724,-1.5724 2.53508,-3.22411 2.78423,-4.59619 0.24915,-1.37208 0.0133,-2.50577 -1.37001,-3.88909 -0.7577,-0.73662 -0.76738,-2.10133 -0.0202,-2.84857 0.74723,-0.74721 2.11197,-0.73757 2.84856,0.0201 2.142331,2.14233 2.932831,4.90268 2.474891,7.42462 -0.457961,2.52196 -1.93586,4.76429 -3.888841,6.71768 l -2.82844,2.82841 c -0.78499,0.81951 -2.29546,0.7529 -3.00519,-0.13258 z" style="text-indent:0;text-transform:none;direction:ltr;block-progression:tb;baseline-shift:baseline;color:#000000;enable-background:accumulate;" fill="#000000" fill-opacity="1" stroke="none" marker="none" visibility="visible" display="inline" overflow="visible"/></g><text x="0" y="115" fill="#000000" font-size="5px" font-weight="bold" font-family="'Helvetica Neue', Helvetica, Arial-Unicode, Arial, Sans-serif">Created by Three Six Five</text><text x="0" y="120" fill="#000000" font-size="5px" font-weight="bold" font-family="'Helvetica Neue', Helvetica, Arial-Unicode, Arial, Sans-serif">from the Noun Project</text></svg>