<svg xmlns="http://www.w3.org/2000/svg" viewBox="0 0 48 60" x="0px" y="0px"><title>Ui vol.1</title><g data-name="Layer 20"><path d="M41.04248,20.0752V18.83594A16.30258,16.30258,0,0,0,24.75781,2.55176H23.24316A16.30309,16.30309,0,0,0,6.95752,18.83594V20.0752a4.719,4.719,0,0,0,.03955,9.36914,17.0341,17.0341,0,0,0,34.00586,0,4.719,4.719,0,0,0,.03955-9.36914Zm-.58643,7.40039h-.41357a1.00029,1.00029,0,0,0-1,.98437,15.04258,15.04258,0,0,1-30.085,0,1.00029,1.00029,0,0,0-1-.98437h-.4126a2.71827,2.71827,0,0,1,0-5.43653h.4126a.99973.99973,0,0,0,1-1V18.83594A14.30142,14.30142,0,0,1,23.24316,4.55176h1.51465A14.3009,14.3009,0,0,1,39.04248,18.83594v2.20312a.99973.99973,0,0,0,1,1h.41357a2.71827,2.71827,0,0,1,0,5.43653Z"/><path d="M29.97314,19.76465a.99962.99962,0,0,0-1.41406,0L24,24.32373l-4.55908-4.55908a.99989.99989,0,0,0-1.41406,1.41406l4.55908,4.55908-4.55908,4.55909a.99989.99989,0,1,0,1.41406,1.41406L24,27.15186l4.55908,4.55908a.99989.99989,0,0,0,1.41406-1.41406l-4.55908-4.55909,4.55908-4.55908A.99962.99962,0,0,0,29.97314,19.76465Z"/></g><text x="0" y="63" fill="#000000" font-size="5px" font-weight="bold" font-family="'Helvetica Neue', Helvetica, Arial-Unicode, Arial, Sans-serif">Created by Fahmi Ramdani</text><text x="0" y="68" fill="#000000" font-size="5px" font-weight="bold" font-family="'Helvetica Neue', Helvetica, Arial-Unicode, Arial, Sans-serif">from the Noun Project</text></svg>