<svg xmlns="http://www.w3.org/2000/svg" version="1.1" viewBox="-5.0 -10.0 110.0 135.0">
 <path d="m83.703 55.914c-1.3047-4.3906-4.1328-6.1406-5.4297-6.7344-1.8906-5.9531-5.1406-11.273-9.4453-15.285 0.29688-0.48047 1.0586-0.89453 2.7656-0.96484 4.3828-0.17969 3.6523-4.8281 3.2539-6.6406-0.39844-1.8125-0.57812-3.3672 1.4609-4.0742 2.0352-0.70703 1.5078-3.4531 1.5078-3.4531-0.22266 1.2422-1.5508 2.0703-1.5508 2.0703 0.22266-1.3828-0.79688-2.0703-0.79688-2.0703s-0.042969 2.6562-1.9492 4.3828c-1.9062 1.7266 1.9922 7.6641-2.0391 7.4375-2.3906-0.13281-4.2188 0.32812-5.3281 0.72656 0.074218-0.4375 0.12109-0.88281 0.12109-1.3281 0-4.2383-3.3828-7.9336-8.3672-9.8594 0.003906-0.12109 0.027344-0.23828 0.027344-0.35938 0-2.5781-1.25-4.8672-3.1719-6.3125 4.0078-2.4648 4.3906-6.1094 4.3516-7.6328 0.60547-0.1875 0.94141-1.0977 0.75-2.1055-0.19922-1.0547-0.89453-1.8125-1.5547-1.6836-0.66016 0.125-1.0312 1.0781-0.82812 2.1328 0.16016 0.84375 0.64062 1.4844 1.1602 1.6484-0.31641 4.9688-3.7227 6.5938-4.8633 6.9961-1.1133-0.60156-2.3867-0.94531-3.7383-0.94531-1.3633 0-2.6484 0.34766-3.7656 0.96094-1.0977-0.375-4.5859-1.9766-4.9062-7.0078 0.51953-0.16406 1-0.80469 1.1602-1.6484 0.19922-1.0547-0.17188-2.0117-0.82812-2.1328-0.65625-0.125-1.3516 0.62891-1.5547 1.6836-0.19141 1.0078 0.14062 1.9219 0.75 2.1055-0.039062 1.5312 0.34766 5.1914 4.3906 7.6562-1.9023 1.4414-3.1367 3.7188-3.1367 6.2852 0 0.11719 0.023437 0.23438 0.027343 0.35938-4.9844 1.9297-8.3672 5.625-8.3672 9.8594 0 0.45312 0.046875 0.90625 0.125 1.3516-1.0977-0.40625-2.9648-0.88672-5.4062-0.75391-4.0312 0.22266-0.13281-5.7109-2.0391-7.4375s-1.9492-4.3828-1.9492-4.3828-1.0195 0.6875-0.79687 2.0703c0 0-1.3281-0.82812-1.5508-2.0703 0 0-0.53125 2.7461 1.5078 3.4531 2.0391 0.71094 1.8594 2.2578 1.4609 4.0742-0.39844 1.8164-1.1289 6.4609 3.2539 6.6406 1.7695 0.070313 2.5195 0.51562 2.7969 1.0156-4.2812 4-7.5156 9.2812-9.4023 15.203-1.2578 0.55469-4.1719 2.2812-5.5039 6.7656-1.7266 5.8047-7.9688 2.3477-9.3438 8.0156l1.3281-0.4375 0.57422 0.96875s0.92969-2.6562 3.4961-2.7891c2.5703-0.13281 4.918-2.125 5.625-4.9844 0.48047-1.9375 1.6602-1.6016 2.3672-1.1875-0.26953 1.8789-0.42578 3.7891-0.42578 5.7266 0 7.0273 1.8008 13.574 4.8828 19.062-0.007813 2.1289 0.21094 6.3359 1.9883 8.4375 2.4336 2.875-6.4648 6.9961-6.4648 6.9961s-1.1953 0.66406-0.79688 2.082c0 0 0.67188-1.0312 1.4844-0.96484 0 0-0.21484 0.5625-0.097656 1.1289 0 0 0.74219-2.0312 6.3438-3.918 3.4492-1.1641 2.7227-4.6836 1.7266-5.8789-0.60547-0.72656-0.17969-1.3281 0.24609-1.6914 5.4102 6.0195 12.738 9.7266 20.805 9.7266 8.0508 0 15.367-3.6953 20.773-9.6953 0.41016 0.36719 0.79297 0.95313 0.20703 1.6562-0.99609 1.1953-1.7227 4.7188 1.7266 5.8789 5.6016 1.8867 6.3438 3.918 6.3438 3.918 0.11719-0.5625-0.097656-1.1289-0.097656-1.1289 0.8125-0.066406 1.4844 0.96484 1.4844 0.96484 0.39844-1.418-0.79688-2.082-0.79688-2.082s-8.9023-4.1172-6.4648-6.9961c1.7422-2.0586 1.9883-6.1406 1.9883-8.3125 3.1133-5.5 4.9414-12.094 4.9414-19.176 0-1.9453-0.15625-3.8672-0.43359-5.7578 0.71484-0.39844 1.8359-0.66406 2.3047 1.2188 0.70703 2.8555 3.0547 4.8516 5.625 4.9844 2.5703 0.13281 3.4961 2.7891 3.4961 2.7891l0.57422-0.96875 1.3281 0.4375c-1.3711-5.668-7.6133-2.2148-9.3398-8.0195zm-37.414-40.523c0.64453 0.19531 1.1211 0.78906 1.1211 1.4961 0 0.86328-0.70312 1.5664-1.5703 1.5664-0.50391 0-0.94922-0.24219-1.2344-0.61719 0.34375-0.95313 0.92578-1.793 1.6836-2.4453zm1.0703 5.6133c-0.54688 2.2188-2.7578 7.5078-11.168 7.2422 1.0898-3.6523 5.5352-6.5352 11.168-7.2422zm1.207 73.035c-2.4766-0.14844-4.8672-0.6875-7.1367-1.5469 2.6445-0.65625 4.6094-3.0391 4.6094-5.8828 0-3.3516-2.7188-6.0703-6.0703-6.0703s-6.0703 2.7188-6.0703 6.0703c0 0.57031 0.085937 1.1172 0.23047 1.6406-7.293-5.9375-12.082-15.828-12.082-27.016 0-4.9141 0.95703-9.6797 2.6914-13.992 3.2969-0.0625 5.957-2.75 5.957-6.0625 0-1.0234-0.26953-1.9844-0.71875-2.8281 1.4297-1.7266 3.0195-3.2852 4.7656-4.6289 1.2539 2.125 3.4648 2.4531 5.543 2.4531 0.77344 0 1.6289-0.054687 2.5117-0.12109-1.6992 1.0742-2.832 2.9688-2.832 5.125 0 3.3516 2.7188 6.0703 6.0703 6.0703 0.90234 0 1.7578-0.20312 2.5273-0.55469zm5.2539-78.609c0.77344 0.67187 1.3633 1.5469 1.6914 2.543-0.28516 0.29688-0.68359 0.48438-1.125 0.48438-0.86328 0-1.5703-0.70312-1.5703-1.5664 0.003906-0.66797 0.41797-1.2344 1.0039-1.4609zm10.062 12.816c-8.3047 0.21484-10.516-5.0195-11.066-7.2344 5.582 0.73047 9.9805 3.6016 11.066 7.2344zm12.66 43.297c0.015625 0.011719 0.035156 0.015625 0.050781 0.023437-0.78125 2.7734-1.8711 5.3828-3.2227 7.7734v-0.015625c0-4.332-3.5117-7.8438-7.8477-7.8438-4.332 0-7.8477 3.5156-7.8477 7.8438 0 4.3359 3.5117 7.8438 7.8477 7.8438 0.66797 0 1.3125-0.09375 1.9297-0.25-4.625 4.332-10.438 6.9766-16.766 7.1523v-49c0.88281-1.0547 1.418-2.4141 1.418-3.8945 0-1.4844-0.53516-2.8398-1.418-3.8945l0.003906-1.5312c1.2109 0.046875 2.418 0.11328 3.5898 0.19531 1.5547 0.10938 3.0273 0.21094 4.3828 0.21094 0.96094 0 1.9844-0.054688 2.957-0.25-0.007813 0.085938-0.32422 3.418 3.3398 3.625 1.7852 0.10156 3.2383-1.3984 3.3438-3.1641 1.707 1.7383 3.2188 3.7031 4.5156 5.8477-0.64062 0.96094-1.0117 2.1172-1.0117 3.3555 0 2.9688 2.1289 5.4297 4.9414 5.9609 0.79297 2.9844 1.2305 6.1172 1.2656 9.3125-1.1719 0.40625-2.2305 1.1562-2.9922 2.25-1.9141 2.7578-1.2344 6.5391 1.5195 8.4492z"/>
 <path d="m45.664 62.758c0 5.4062-4.3789 9.7891-9.7852 9.7891-5.4023 0-9.7852-4.3828-9.7852-9.7891 0-5.4023 4.3828-9.7852 9.7852-9.7852 5.4062 0 9.7852 4.3828 9.7852 9.7852"/>
 <path d="m69.715 54.691c0 3.7188-3.0117 6.7305-6.7305 6.7305-3.7148 0-6.7266-3.0117-6.7266-6.7305 0-3.7148 3.0117-6.7305 6.7266-6.7305 3.7188 0 6.7305 3.0156 6.7305 6.7305"/>
<text x="0.0" y="117.5" font-size="5.0" font-weight="bold" font-family="Arbeit Regular, Helvetica, Arial-Unicode, Arial, Sans-serif" fill="#000000">Created by luffy dono</text><text x="0.0" y="122.5" font-size="5.0" font-weight="bold" font-family="Arbeit Regular, Helvetica, Arial-Unicode, Arial, Sans-serif" fill="#000000">from Noun Project</text></svg>